<?xml version="1.0" standalone="no"?>
<!DOCTYPE svg PUBLIC "-//W3C//DTD SVG 20010904//EN"
 "http://www.w3.org/TR/2001/REC-SVG-20010904/DTD/svg10.dtd">
<svg version="1.0" xmlns="http://www.w3.org/2000/svg"
 width="435.000000pt" height="435.000000pt" viewBox="0 0 435.000000 435.000000"
 preserveAspectRatio="xMidYMid meet">

<g transform="translate(0.000000,435.000000) scale(0.100000,-0.100000)"
fill="#000000" stroke="none">
<path d="M3328 3963 c6 -2 18 -2 25 0 6 3 1 5 -13 5 -14 0 -19 -2 -12 -5z"/>
<path d="M3058 3723 c7 -3 16 -2 19 1 4 3 -2 6 -13 5 -11 0 -14 -3 -6 -6z"/>
<path d="M3180 3620 c0 -5 5 -10 11 -10 5 0 7 5 4 10 -3 6 -8 10 -11 10 -2 0
-4 -4 -4 -10z"/>
<path d="M3080 3586 c0 -2 9 -6 20 -9 11 -3 18 -1 14 4 -5 9 -34 13 -34 5z"/>
<path d="M3008 3563 c7 -3 16 -2 19 1 4 3 -2 6 -13 5 -11 0 -14 -3 -6 -6z"/>
<path d="M3138 3553 c7 -3 16 -2 19 1 4 3 -2 6 -13 5 -11 0 -14 -3 -6 -6z"/>
<path d="M3270 3550 c0 -5 5 -10 11 -10 5 0 7 5 4 10 -3 6 -8 10 -11 10 -2 0
-4 -4 -4 -10z"/>
<path d="M3251 3454 c0 -11 3 -14 6 -6 3 7 2 16 -1 19 -3 4 -6 -2 -5 -13z"/>
<path d="M2978 3443 c7 -3 16 -2 19 1 4 3 -2 6 -13 5 -11 0 -14 -3 -6 -6z"/>
<path d="M3035 3410 c-3 -6 1 -7 9 -4 18 7 21 14 7 14 -6 0 -13 -4 -16 -10z"/>
<path d="M2975 3390 c3 -5 11 -10 16 -10 6 0 7 5 4 10 -3 6 -11 10 -16 10 -6
0 -7 -4 -4 -10z"/>
<path d="M3060 3326 c0 -10 28 -13 41 -5 10 6 7 9 -13 9 -16 0 -28 -2 -28 -4z"/>
<path d="M3171 3274 c0 -11 3 -14 6 -6 3 7 2 16 -1 19 -3 4 -6 -2 -5 -13z"/>
<path d="M2998 3263 c6 -2 18 -2 25 0 6 3 1 5 -13 5 -14 0 -19 -2 -12 -5z"/>
<path d="M3068 3263 c6 -2 18 -2 25 0 6 3 1 5 -13 5 -14 0 -19 -2 -12 -5z"/>
<path d="M830 2921 c0 -5 29 -12 65 -16 40 -4 76 -15 97 -29 65 -43 63 -26 66
-626 1 -300 2 -553 2 -562 0 -16 13 -18 140 -18 l140 0 0 563 c0 515 1 565 18
596 22 44 71 69 150 77 146 16 37 24 -308 24 -207 0 -370 -4 -370 -9z"/>
<path d="M2958 2883 c7 -3 16 -2 19 1 4 3 -2 6 -13 5 -11 0 -14 -3 -6 -6z"/>
<path d="M2420 2764 c-223 -38 -327 -89 -460 -223 -99 -100 -153 -198 -195
-352 -29 -104 -44 -328 -31 -452 l8 -67 149 0 149 0 -7 138 c-6 146 8 359 32
482 63 329 230 474 523 458 210 -12 282 -96 308 -361 l6 -67 52 6 c119 14 186
75 186 171 0 63 -14 95 -67 144 -91 87 -211 120 -453 124 -96 2 -186 2 -200
-1z"/>
<path d="M2640 1812 c0 -5 27 -14 60 -20 73 -13 115 -41 131 -87 l13 -35 143
0 144 0 5 30 c11 55 77 100 147 100 9 0 17 5 17 10 0 6 -117 10 -330 10 -181
0 -330 -4 -330 -8z"/>
<path d="M2118 1463 c7 -3 16 -2 19 1 4 3 -2 6 -13 5 -11 0 -14 -3 -6 -6z"/>
<path d="M1915 1360 c-3 -6 1 -7 9 -4 18 7 21 14 7 14 -6 0 -13 -4 -16 -10z"/>
<path d="M1990 1366 c0 -2 7 -7 16 -10 8 -3 12 -2 9 4 -6 10 -25 14 -25 6z"/>
<path d="M2118 1313 c7 -3 16 -2 19 1 4 3 -2 6 -13 5 -11 0 -14 -3 -6 -6z"/>
<path d="M1060 1173 c-11 -292 -34 -385 -112 -460 -42 -41 -108 -69 -180 -78
-32 -3 -58 -11 -58 -17 0 -16 181 -3 266 20 221 59 335 208 359 470 l7 72
-141 0 c-78 0 -141 -3 -141 -7z"/>
<path d="M2000 1175 c0 -12 140 -94 202 -119 241 -95 614 -81 881 33 43 19 47
23 47 56 l0 35 -140 0 -139 0 -3 -67 -3 -68 -55 -13 c-69 -17 -270 -19 -332
-4 -97 24 -158 54 -212 103 l-54 49 -96 0 c-53 0 -96 -2 -96 -5z"/>
</g>
</svg>
